<mxfile host="65bd71144e">
    <diagram id="z4m7HRr5UvAJ486EyE6T" name="Publish">
        <mxGraphModel dx="773" dy="191" grid="0" gridSize="10" guides="1" tooltips="1" connect="1" arrows="1" fold="1" page="0" pageScale="1" pageWidth="850" pageHeight="1100" math="0" shadow="0">
            <root>
                <mxCell id="0"/>
                <mxCell id="1" parent="0"/>
            </root>
        </mxGraphModel>
    </diagram>
    <diagram id="q6n8bIoWFs3bMQJXp5VB" name="Use Case">
        <mxGraphModel dx="1658" dy="740" grid="0" gridSize="10" guides="1" tooltips="1" connect="1" arrows="1" fold="1" page="0" pageScale="1" pageWidth="850" pageHeight="1100" math="0" shadow="0">
            <root>
                <mxCell id="0"/>
                <mxCell id="1" parent="0"/>
                <mxCell id="ugQ4jbbFijomWUWFRjUU-1" value="&lt;b&gt;uc CloudDrive16&lt;/b&gt;" style="shape=umlFrame;whiteSpace=wrap;html=1;width=188;height=28;boundedLbl=1;verticalAlign=middle;align=left;spacingLeft=5;fillColor=#ffe6cc;strokeColor=#d79b00;swimlaneFillColor=#FFFFFF;" vertex="1" parent="1">
                    <mxGeometry x="401" y="224" width="1293" height="718" as="geometry"/>
                </mxCell>
                <mxCell id="ugQ4jbbFijomWUWFRjUU-2" value="&lt;font style=&quot;font-size: 50px&quot;&gt;CloudDrive16&lt;/font&gt;" style="shape=rect;html=1;verticalAlign=top;fontStyle=1;whiteSpace=wrap;align=center;fillColor=#f5f5f5;strokeColor=#666666;fontColor=#333333;" vertex="1" parent="1">
                    <mxGeometry x="553" y="259" width="989" height="636" as="geometry"/>
                </mxCell>
                <mxCell id="ugQ4jbbFijomWUWFRjUU-3" value="&lt;font face=&quot;times new roman, serif&quot;&gt;&lt;span style=&quot;font-size: 17.3333px;&quot;&gt;Sign up&lt;/span&gt;&lt;/font&gt;" style="ellipse;whiteSpace=wrap;html=1;fillColor=#dae8fc;strokeColor=#6c8ebf;" vertex="1" parent="1">
                    <mxGeometry x="571.5" y="472" width="147" height="71" as="geometry"/>
                </mxCell>
                <mxCell id="ugQ4jbbFijomWUWFRjUU-4" value="" style="edgeStyle=none;html=1;endArrow=none;verticalAlign=bottom;exitX=0;exitY=0.5;exitDx=0;exitDy=0;entryX=1;entryY=0.3333333333333333;entryDx=0;entryDy=0;entryPerimeter=0;" edge="1" parent="1" source="ugQ4jbbFijomWUWFRjUU-3" target="ugQ4jbbFijomWUWFRjUU-26">
                    <mxGeometry width="160" relative="1" as="geometry">
                        <mxPoint x="812" y="527" as="sourcePoint"/>
                        <mxPoint x="446" y="470" as="targetPoint"/>
                    </mxGeometry>
                </mxCell>
                <mxCell id="ugQ4jbbFijomWUWFRjUU-5" value="&lt;font face=&quot;times new roman, serif&quot;&gt;&lt;span style=&quot;font-size: 17.3333px&quot;&gt;Login&lt;/span&gt;&lt;/font&gt;" style="ellipse;whiteSpace=wrap;html=1;fillColor=#dae8fc;strokeColor=#6c8ebf;" vertex="1" parent="1">
                    <mxGeometry x="572" y="394" width="147" height="71" as="geometry"/>
                </mxCell>
                <mxCell id="ugQ4jbbFijomWUWFRjUU-6" value="" style="edgeStyle=none;html=1;endArrow=none;verticalAlign=bottom;entryX=1;entryY=0.3333333333333333;entryDx=0;entryDy=0;entryPerimeter=0;exitX=0;exitY=0.5;exitDx=0;exitDy=0;" edge="1" parent="1" source="ugQ4jbbFijomWUWFRjUU-5" target="ugQ4jbbFijomWUWFRjUU-26">
                    <mxGeometry width="160" relative="1" as="geometry">
                        <mxPoint x="997.5" y="403" as="sourcePoint"/>
                        <mxPoint x="446" y="470" as="targetPoint"/>
                    </mxGeometry>
                </mxCell>
                <mxCell id="ugQ4jbbFijomWUWFRjUU-7" value="&lt;font face=&quot;times new roman, serif&quot;&gt;&lt;span style=&quot;font-size: 17.3333px&quot;&gt;View information&lt;/span&gt;&lt;/font&gt;" style="ellipse;whiteSpace=wrap;html=1;fillColor=#dae8fc;strokeColor=#6c8ebf;" vertex="1" parent="1">
                    <mxGeometry x="571" y="318" width="147" height="71" as="geometry"/>
                </mxCell>
                <mxCell id="ugQ4jbbFijomWUWFRjUU-8" value="" style="edgeStyle=none;html=1;endArrow=none;verticalAlign=bottom;exitX=0;exitY=0.5;exitDx=0;exitDy=0;entryX=1;entryY=0.3333333333333333;entryDx=0;entryDy=0;entryPerimeter=0;" edge="1" parent="1" source="ugQ4jbbFijomWUWFRjUU-7" target="ugQ4jbbFijomWUWFRjUU-26">
                    <mxGeometry width="160" relative="1" as="geometry">
                        <mxPoint x="997.4999999999975" y="469" as="sourcePoint"/>
                        <mxPoint x="446" y="470" as="targetPoint"/>
                    </mxGeometry>
                </mxCell>
                <mxCell id="ugQ4jbbFijomWUWFRjUU-9" value="&lt;font face=&quot;times new roman, serif&quot;&gt;&lt;span style=&quot;font-size: 17.3333px&quot;&gt;Authentication&lt;/span&gt;&lt;/font&gt;" style="ellipse;whiteSpace=wrap;html=1;fillColor=#dae8fc;strokeColor=#6c8ebf;" vertex="1" parent="1">
                    <mxGeometry x="786.5" y="394" width="145" height="71" as="geometry"/>
                </mxCell>
                <mxCell id="ugQ4jbbFijomWUWFRjUU-10" value="&amp;lt;&amp;lt;include&amp;gt;&amp;gt;" style="edgeStyle=none;html=1;endArrow=open;verticalAlign=bottom;dashed=1;labelBackgroundColor=none;exitX=1;exitY=0.5;exitDx=0;exitDy=0;" edge="1" parent="1" source="ugQ4jbbFijomWUWFRjUU-5" target="ugQ4jbbFijomWUWFRjUU-9">
                    <mxGeometry width="160" relative="1" as="geometry">
                        <mxPoint x="316.9999999999975" y="270" as="sourcePoint"/>
                        <mxPoint x="921.5" y="710" as="targetPoint"/>
                    </mxGeometry>
                </mxCell>
                <mxCell id="ugQ4jbbFijomWUWFRjUU-12" value="&lt;font face=&quot;times new roman, serif&quot;&gt;&lt;span style=&quot;font-size: 17.3333px&quot;&gt;Reset password&lt;/span&gt;&lt;/font&gt;" style="ellipse;whiteSpace=wrap;html=1;fillColor=#dae8fc;strokeColor=#6c8ebf;" vertex="1" parent="1">
                    <mxGeometry x="573.5" y="549" width="147" height="71" as="geometry"/>
                </mxCell>
                <mxCell id="ugQ4jbbFijomWUWFRjUU-13" value="" style="edgeStyle=none;html=1;endArrow=none;verticalAlign=bottom;exitX=0;exitY=0.5;exitDx=0;exitDy=0;entryX=1;entryY=0.3333333333333333;entryDx=0;entryDy=0;entryPerimeter=0;" edge="1" parent="1" source="ugQ4jbbFijomWUWFRjUU-12" target="ugQ4jbbFijomWUWFRjUU-26">
                    <mxGeometry width="160" relative="1" as="geometry">
                        <mxPoint x="997.4999999999964" y="566" as="sourcePoint"/>
                        <mxPoint x="446" y="470" as="targetPoint"/>
                    </mxGeometry>
                </mxCell>
                <mxCell id="ugQ4jbbFijomWUWFRjUU-14" value="&amp;lt;&amp;lt;include&amp;gt;&amp;gt;" style="edgeStyle=none;html=1;endArrow=open;verticalAlign=bottom;dashed=1;labelBackgroundColor=none;exitX=1;exitY=0.5;exitDx=0;exitDy=0;entryX=0;entryY=1;entryDx=0;entryDy=0;" edge="1" parent="1" source="ugQ4jbbFijomWUWFRjUU-12" target="ugQ4jbbFijomWUWFRjUU-113">
                    <mxGeometry width="160" relative="1" as="geometry">
                        <mxPoint x="581.0000000000036" y="463" as="sourcePoint"/>
                        <mxPoint x="786.5" y="584.5" as="targetPoint"/>
                    </mxGeometry>
                </mxCell>
                <mxCell id="ugQ4jbbFijomWUWFRjUU-15" value="&lt;span style=&quot;font-size: 13.0pt ; line-height: 115% ; font-family: &amp;quot;times new roman&amp;quot; , serif&quot;&gt;View profile&lt;/span&gt;" style="ellipse;whiteSpace=wrap;html=1;fillColor=#dae8fc;strokeColor=#6c8ebf;" vertex="1" parent="1">
                    <mxGeometry x="572" y="791" width="145" height="71" as="geometry"/>
                </mxCell>
                <mxCell id="ugQ4jbbFijomWUWFRjUU-16" value="User" style="shape=umlActor;verticalLabelPosition=bottom;verticalAlign=top;html=1;fillColor=#f8cecc;strokeColor=#b85450;" vertex="1" parent="1">
                    <mxGeometry x="435" y="727" width="30" height="61" as="geometry"/>
                </mxCell>
                <mxCell id="ugQ4jbbFijomWUWFRjUU-17" value="" style="edgeStyle=none;html=1;endArrow=none;verticalAlign=bottom;exitX=1;exitY=0.3333333333333333;exitDx=0;exitDy=0;exitPerimeter=0;entryX=0;entryY=0.5;entryDx=0;entryDy=0;" edge="1" parent="1" source="ugQ4jbbFijomWUWFRjUU-16" target="ugQ4jbbFijomWUWFRjUU-15">
                    <mxGeometry width="160" relative="1" as="geometry">
                        <mxPoint x="475" y="730" as="sourcePoint"/>
                        <mxPoint x="585" y="694" as="targetPoint"/>
                    </mxGeometry>
                </mxCell>
                <mxCell id="ugQ4jbbFijomWUWFRjUU-18" value="&lt;span style=&quot;font-size: 13.0pt ; line-height: 115% ; font-family: &amp;quot;times new roman&amp;quot; , serif&quot;&gt;edit profile&lt;/span&gt;" style="ellipse;whiteSpace=wrap;html=1;fillColor=#dae8fc;strokeColor=#6c8ebf;" vertex="1" parent="1">
                    <mxGeometry x="785.5" y="791" width="140" height="71" as="geometry"/>
                </mxCell>
                <mxCell id="ugQ4jbbFijomWUWFRjUU-19" value="&amp;lt;&amp;lt;extend&amp;gt;&amp;gt;" style="edgeStyle=none;html=1;startArrow=open;endArrow=none;startSize=12;verticalAlign=bottom;dashed=1;labelBackgroundColor=none;exitX=1;exitY=0.5;exitDx=0;exitDy=0;entryX=0;entryY=0.5;entryDx=0;entryDy=0;" edge="1" parent="1" source="ugQ4jbbFijomWUWFRjUU-15" target="ugQ4jbbFijomWUWFRjUU-18">
                    <mxGeometry width="160" relative="1" as="geometry">
                        <mxPoint x="736" y="790" as="sourcePoint"/>
                        <mxPoint x="896" y="790" as="targetPoint"/>
                    </mxGeometry>
                </mxCell>
                <mxCell id="ugQ4jbbFijomWUWFRjUU-20" value="&lt;font face=&quot;times new roman, serif&quot;&gt;&lt;span style=&quot;font-size: 17.3333px&quot;&gt;Logout&lt;/span&gt;&lt;/font&gt;" style="ellipse;whiteSpace=wrap;html=1;fillColor=#dae8fc;strokeColor=#6c8ebf;" vertex="1" parent="1">
                    <mxGeometry x="572.5" y="633" width="145" height="71" as="geometry"/>
                </mxCell>
                <mxCell id="ugQ4jbbFijomWUWFRjUU-21" value="" style="edgeStyle=none;html=1;endArrow=none;verticalAlign=bottom;exitX=1;exitY=0.3333333333333333;exitDx=0;exitDy=0;exitPerimeter=0;entryX=0;entryY=0.5;entryDx=0;entryDy=0;" edge="1" parent="1" source="ugQ4jbbFijomWUWFRjUU-16" target="ugQ4jbbFijomWUWFRjUU-20">
                    <mxGeometry width="160" relative="1" as="geometry">
                        <mxPoint x="490" y="725" as="sourcePoint"/>
                        <mxPoint x="600" y="772" as="targetPoint"/>
                    </mxGeometry>
                </mxCell>
                <mxCell id="ugQ4jbbFijomWUWFRjUU-22" value="&lt;font face=&quot;times new roman, serif&quot;&gt;&lt;span style=&quot;font-size: 17.3333px&quot;&gt;Change password&lt;/span&gt;&lt;/font&gt;" style="ellipse;whiteSpace=wrap;html=1;fillColor=#dae8fc;strokeColor=#6c8ebf;" vertex="1" parent="1">
                    <mxGeometry x="571" y="712" width="145" height="71" as="geometry"/>
                </mxCell>
                <mxCell id="ugQ4jbbFijomWUWFRjUU-23" value="" style="edgeStyle=none;html=1;endArrow=none;verticalAlign=bottom;exitX=1;exitY=0.3333333333333333;exitDx=0;exitDy=0;exitPerimeter=0;entryX=0;entryY=0.5;entryDx=0;entryDy=0;" edge="1" parent="1" source="ugQ4jbbFijomWUWFRjUU-16" target="ugQ4jbbFijomWUWFRjUU-22">
                    <mxGeometry width="160" relative="1" as="geometry">
                        <mxPoint x="475" y="723" as="sourcePoint"/>
                        <mxPoint x="582.5" y="678" as="targetPoint"/>
                    </mxGeometry>
                </mxCell>
                <mxCell id="ugQ4jbbFijomWUWFRjUU-24" value="&lt;font face=&quot;times new roman, serif&quot;&gt;&lt;span style=&quot;font-size: 17.3333px&quot;&gt;Authentication&lt;/span&gt;&lt;/font&gt;" style="ellipse;whiteSpace=wrap;html=1;fillColor=#dae8fc;strokeColor=#6c8ebf;" vertex="1" parent="1">
                    <mxGeometry x="783" y="712" width="145" height="71" as="geometry"/>
                </mxCell>
                <mxCell id="ugQ4jbbFijomWUWFRjUU-25" value="&amp;lt;&amp;lt;include&amp;gt;&amp;gt;" style="edgeStyle=none;html=1;endArrow=open;verticalAlign=bottom;dashed=1;labelBackgroundColor=none;exitX=1;exitY=0.5;exitDx=0;exitDy=0;entryX=0;entryY=0.5;entryDx=0;entryDy=0;" edge="1" parent="1" source="ugQ4jbbFijomWUWFRjUU-22" target="ugQ4jbbFijomWUWFRjUU-24">
                    <mxGeometry width="160" relative="1" as="geometry">
                        <mxPoint x="803.0010381017994" y="884.0018644226827" as="sourcePoint"/>
                        <mxPoint x="793" y="751" as="targetPoint"/>
                    </mxGeometry>
                </mxCell>
                <mxCell id="ugQ4jbbFijomWUWFRjUU-26" value="Guest" style="shape=umlActor;verticalLabelPosition=bottom;verticalAlign=top;html=1;fillColor=#f8cecc;strokeColor=#b85450;" vertex="1" parent="1">
                    <mxGeometry x="435" y="438" width="30" height="61" as="geometry"/>
                </mxCell>
                <mxCell id="ugQ4jbbFijomWUWFRjUU-27" value="" style="edgeStyle=none;html=1;endArrow=block;endFill=0;endSize=12;verticalAlign=bottom;exitX=0.5;exitY=0;exitDx=0;exitDy=0;exitPerimeter=0;" edge="1" parent="1" source="ugQ4jbbFijomWUWFRjUU-16">
                    <mxGeometry width="160" relative="1" as="geometry">
                        <mxPoint x="665" y="647" as="sourcePoint"/>
                        <mxPoint x="450" y="519" as="targetPoint"/>
                    </mxGeometry>
                </mxCell>
                <mxCell id="ugQ4jbbFijomWUWFRjUU-94" value="&lt;font face=&quot;times new roman, serif&quot;&gt;&lt;span style=&quot;font-size: 17.3333px&quot;&gt;Search&lt;/span&gt;&lt;/font&gt;" style="ellipse;whiteSpace=wrap;html=1;fillColor=#dae8fc;strokeColor=#6c8ebf;" vertex="1" parent="1">
                    <mxGeometry x="786.5" y="318" width="147" height="71" as="geometry"/>
                </mxCell>
                <mxCell id="ugQ4jbbFijomWUWFRjUU-95" value="&amp;lt;&amp;lt;extend&amp;gt;&amp;gt;" style="edgeStyle=none;html=1;startArrow=open;endArrow=none;startSize=12;verticalAlign=bottom;dashed=1;labelBackgroundColor=none;exitX=1;exitY=0.5;exitDx=0;exitDy=0;" edge="1" parent="1" source="ugQ4jbbFijomWUWFRjUU-7" target="ugQ4jbbFijomWUWFRjUU-94">
                    <mxGeometry width="160" relative="1" as="geometry">
                        <mxPoint x="732" y="353" as="sourcePoint"/>
                        <mxPoint x="795.5" y="836" as="targetPoint"/>
                    </mxGeometry>
                </mxCell>
                <mxCell id="ugQ4jbbFijomWUWFRjUU-113" value="&lt;font face=&quot;times new roman, serif&quot;&gt;&lt;span style=&quot;font-size: 17.3333px;&quot;&gt;Verify email&lt;/span&gt;&lt;/font&gt;" style="ellipse;whiteSpace=wrap;html=1;fillColor=#dae8fc;strokeColor=#6c8ebf;" vertex="1" parent="1">
                    <mxGeometry x="786.5" y="472" width="145" height="71" as="geometry"/>
                </mxCell>
                <mxCell id="ugQ4jbbFijomWUWFRjUU-114" value="&amp;lt;&amp;lt;include&amp;gt;&amp;gt;" style="edgeStyle=none;html=1;endArrow=open;verticalAlign=bottom;dashed=1;labelBackgroundColor=none;exitX=1;exitY=0.5;exitDx=0;exitDy=0;entryX=0;entryY=0.5;entryDx=0;entryDy=0;" edge="1" parent="1" source="ugQ4jbbFijomWUWFRjUU-3" target="ugQ4jbbFijomWUWFRjUU-113">
                    <mxGeometry width="160" relative="1" as="geometry">
                        <mxPoint x="730.5" y="518" as="sourcePoint"/>
                        <mxPoint x="798.5308357203076" y="517.0352737754242" as="targetPoint"/>
                    </mxGeometry>
                </mxCell>
                <mxCell id="ugQ4jbbFijomWUWFRjUU-115" value="&amp;lt;&amp;lt;include&amp;gt;&amp;gt;" style="edgeStyle=none;html=1;endArrow=open;verticalAlign=bottom;dashed=1;labelBackgroundColor=none;exitX=1;exitY=1;exitDx=0;exitDy=0;entryX=0;entryY=0;entryDx=0;entryDy=0;" edge="1" parent="1" source="ugQ4jbbFijomWUWFRjUU-5" target="ugQ4jbbFijomWUWFRjUU-113">
                    <mxGeometry width="160" relative="1" as="geometry">
                        <mxPoint x="730.5" y="518" as="sourcePoint"/>
                        <mxPoint x="798.5308357203076" y="517.0352737754242" as="targetPoint"/>
                    </mxGeometry>
                </mxCell>
            </root>
        </mxGraphModel>
    </diagram>
</mxfile>